<svg width="62" height="67" xmlns="http://www.w3.org/2000/svg"><g fill="#292F35" fill-rule="nonzero"><path d="M58.9 29.1V27c0-1.5-1.2-2.7-2.7-2.7-1.5 0-2.7 1.2-2.7 2.7v2.2H52v1.5h1.5v1.8H52V34h1.5v24.5l2.7 5.5 2.7-5.5V34h1.6v10.4H62V29.1h-3.1zm-4-2.1c0-.7.6-1.2 1.2-1.2.7 0 1.2.6 1.2 1.2v2.2h-2.5V27h.1zm0 3.6h2.5v1.8h-2.5v-1.8zm1.3 30L55 58.1v-.4h2.5v.4l-1.3 2.5zm1.2-4.4h-2.5V34h2.5v22.2zm1.5-23.7v-1.8h1.6v1.8h-1.6zM24.4 5.9H26v1.5h-1.6z"/><path d="M38.7 5.7h-7.8c-.4-2.8-2.8-5-5.7-5-2.9 0-5.3 2.2-5.7 5h-7.8v3.6H.9v57h48.6v-57H38.7V5.7zM13.3 7.2H21v-.7c0-2.3 1.9-4.2 4.2-4.2 2.3 0 4.2 1.9 4.2 4.2v.8h7.7V12H13.3V7.2zM48 10.8v54H2.4v-54h9.4v2.8h26.9v-2.8H48z"/><path d="M22.7 21.4h19.9v1.5H22.7zM22.7 25.5h13.7V27H22.7zM11.2 25.3L10 24.1l-1.1 1.1 2.3 2.2 4.9-4.9-1.1-1z"/><path d="M12.5 17.7c-3.6 0-6.5 2.9-6.5 6.5s2.9 6.5 6.5 6.5 6.5-2.9 6.5-6.5-2.9-6.5-6.5-6.5zm0 11.5c-2.8 0-5-2.2-5-5s2.2-5 5-5 5 2.2 5 5c0 2.7-2.2 5-5 5zM22.7 37h19.9v1.5H22.7zM22.7 41.2h13.7v1.5H22.7zM11.2 41L10 39.8l-1.1 1 2.3 2.3 4.9-4.9-1.1-1z"/><path d="M12.5 33.4c-3.6 0-6.5 2.9-6.5 6.5s2.9 6.5 6.5 6.5 6.5-2.9 6.5-6.5-2.9-6.5-6.5-6.5zm0 11.5c-2.8 0-5-2.2-5-5s2.2-5 5-5 5 2.2 5 5c0 2.7-2.2 5-5 5zM22.7 52.7h19.9v1.5H22.7zM22.7 56.9h13.7v1.5H22.7zM12.5 49C8.9 49 6 52 6 55.5S8.9 62 12.5 62s6.5-2.9 6.5-6.5-2.9-6.5-6.5-6.5zm0 11.5c-2.8 0-5-2.2-5-5s2.2-5 5-5 5 2.2 5 5-2.2 5-5 5z"/><path d="M15.2 53.9l-1-1.1-1.7 1.7-1.7-1.7-1 1.1 1.6 1.6-1.6 1.7 1 1.1 1.7-1.7 1.7 1.7 1-1.1-1.6-1.7z"/></g></svg>