<svg width="67" height="59" xmlns="http://www.w3.org/2000/svg"><g fill="#292F35" fill-rule="nonzero"><path d="M62.5.4h-58C2.4.4.8 2 .8 4.1v40.4c0 2.1 1.7 3.8 3.8 3.8h20.2V54H22c-1.3 0-2.4 1.1-2.4 2.4 0 1.3 1.1 2.4 2.4 2.4h23c1.3 0 2.4-1.1 2.4-2.4 0-1.3-1.1-2.4-2.4-2.4h-2.8v-5.7h20.2c2.1 0 3.8-1.7 3.8-3.8V4.1C66.3 2 64.6.4 62.5.4zm-58 1.5h58c1.2 0 2.3 1 2.3 2.3v38.2H2.3V4.1c0-1.2 1-2.2 2.2-2.2zM45 55.4c.5 0 .9.4.9.9s-.4.9-.9.9H22c-.5 0-.9-.4-.9-.9s.4-.9.9-.9h23zm-4.2-1.5H26.3v-5.7h14.5v5.7zm21.7-7.1h-58c-1.2 0-2.3-1-2.3-2.3v-.7h62.5v.7c.1 1.3-1 2.3-2.2 2.3z"/><path d="M38.5 30l4.7 3-4.7 3 .8 1.3L46 33l-6.7-4.3zM27.7 28.7L21 33l6.7 4.3.8-1.3-4.7-3 4.7-3zM30.615 40.65l-1.345-.665 7.182-14.521 1.344.665z"/><path d="M14.1 11.2c1.2 0 2.2-.8 2.5-1.9h10.6c-4.5 2.3-7.5 6.8-7.8 12h-1.9v5.2h5.2v-5.2H21c.3-5.7 4.5-10.6 10.1-11.8v1.6h5.2V9.5c5.6 1.1 9.8 6 10.2 11.8h-1.9v5.2h5.2v-5.2H48c-.3-5.2-3.3-9.7-7.8-12h10.7c.3 1.1 1.3 1.9 2.5 1.9 1.5 0 2.6-1.2 2.6-2.6C56 7.1 54.8 6 53.4 6c-1.2 0-2.2.8-2.5 1.9H36.3V6h-5.2v1.8H16.7c-.4-1-1.4-1.8-2.6-1.8-1.5 0-2.6 1.2-2.6 2.6 0 1.5 1.2 2.6 2.6 2.6zM21.3 25h-2.2v-2.2h2.2V25zm27 0h-2.2v-2.2h2.2V25zm5.2-17.5c.6 0 1.1.5 1.1 1.1 0 .6-.5 1.1-1.1 1.1-.6 0-1.1-.5-1.1-1.1-.1-.6.4-1.1 1.1-1.1zm-20.9 0h2.2v2.2h-2.2V7.5zm-18.5 0c.6 0 1.1.5 1.1 1.1 0 .6-.5 1.1-1.1 1.1-.6 0-1.1-.5-1.1-1.1 0-.6.5-1.1 1.1-1.1z"/></g></svg>