<svg width="67" height="61" xmlns="http://www.w3.org/2000/svg"><g fill="#292F35" fill-rule="nonzero"><path d="M59.4.8c-.6 0-2.3.1-2.3.1h-.7v8.4H.8v50.8h58.1c4 0 7.3-3.3 7.3-7.3V7.1c0-3.5-2.9-6.3-6.8-6.3zm-.5 57.9H2.3V10.8h54.1v35.4l.2 1.1.8-.2c.4-.1 1.1-.2 1.5-.2 3.2 0 5.8 2.6 5.8 5.8 0 3.4-2.6 6-5.8 6zm5.8-10.3c-1.3-1.8-3.5-2.9-5.9-2.9-.3 0-.6 0-1 .1V2.3h1.6c3.1 0 5.3 2 5.3 4.9v41.2z"/><path d="M44.6 30H33.4L30 26.5v-4.7h6.9v-7.5H21.5v7.5h6.9v4.7L25 30H13.8v5.9H9.7v7.3h4.2v4.9H9.7v7.3h9.8v-7.3h-4.2v-4.9h4.2v-7.3h-4.2v-4.4H25l3.5 3.5v13.1h-4.2v7.3h9.8v-7.3H30V34.9l3.5-3.5h9.7v4.4H39v7.3h4.2V48H39v7.3h9.8V48h-4.2v-4.9h4.2v-7.3h-4.2V30zM23 15.7h12.4v4.5H23v-4.5zm-5 38.2h-6.8v-4.3H18v4.3zm0-12.2h-6.8v-4.3H18v4.3zm14.6 12.2h-6.8v-4.3h6.8v4.3zm-3.4-20.3l-2.9-2.9 2.9-2.9 2.9 2.9-2.9 2.9zm18.1 20.3h-6.8v-4.3h6.8v4.3zm0-12.2h-6.8v-4.3h6.8v4.3z"/></g></svg>