<svg width="70" height="44" viewBox="0 0 70 44" fill="none" xmlns="http://www.w3.org/2000/svg">
<path d="M2.30896 2.21H1.51697C0.129273 2.21 0.129273 0 1.51697 0H4.91736C5.42127 0 5.73279 0.177999 5.85095 0.534L9.42615 10.392L12.9799 0.539C13.1 0.179001 13.4183 0 13.934 0H17.3314C18.7211 0 18.7211 2.2 17.3314 2.2H16.5248L16.9447 17.005H23.6742C25.0638 17.005 25.0638 19.205 23.6742 19.205H12.7426C11.351 19.205 11.351 17.005 12.7426 17.005H14.5297L14.1761 3.758L10.9008 12.98C10.8031 13.3017 10.6068 13.5848 10.3402 13.79C10.0668 13.9613 9.74841 14.0451 9.42615 14.03C9.10291 14.045 8.78357 13.9613 8.51013 13.79C8.24451 13.5839 8.04822 13.3012 7.94763 12.98L4.65759 3.758L4.3197 17.008H6.10877C7.49939 17.008 7.49939 19.208 6.10877 19.208H1.03064C-0.34436 19.216 -0.34436 17.005 1.03552 17.005H1.90564L2.30896 2.21Z" fill="#222222"/>
<path fill-rule="evenodd" clip-rule="evenodd" d="M20.2758 13.148L24.2328 2.211H21.222C19.8304 2.211 19.8304 0.0109997 21.222 0.0109997H27.1293C27.9379 -0.0410004 28.4799 0.309 28.7562 1.061L34.4398 17.005H35.4222C36.8129 17.005 36.8129 19.205 35.4222 19.205H29.722C28.3314 19.205 28.3314 17.005 29.722 17.005H31.8959L30.5756 13.153L20.2758 13.148ZM23.517 10.958H29.8295L26.8392 2.211H26.5336L23.517 10.958Z" fill="#222222"/>
<path d="M42.7816 2.21H38.4828V5.502C38.4828 6.959 36.0677 6.959 36.0677 5.502V1.105C36.0121 0.357 36.3519 -0.0100002 37.0824 0.00500107H50.8959C51.6263 -0.0100002 51.9652 0.357 51.9115 1.105V5.503C51.9115 6.96 49.4965 6.96 49.4965 5.503V2.21H45.1976V17.004H48.9974C50.3871 17.004 50.3871 19.204 48.9974 19.204H38.9808C37.5902 19.204 37.5902 17.004 38.9808 17.004H42.7816V2.21Z" fill="#222222"/>
<path d="M60.5677 2.21H56.2689V5.502C56.2689 6.959 53.8539 6.959 53.8539 5.502V1.105C53.7992 0.357 54.1381 -0.0100002 54.8695 0.00500107H68.6849C69.4144 -0.0100002 69.7523 0.357 69.6996 1.105V5.503C69.6996 6.96 67.2845 6.96 67.2845 5.503V2.21H62.9828V17.004H66.7826C68.1722 17.004 68.1722 19.204 66.7826 19.204H56.7689C55.3773 19.204 55.3773 17.004 56.7689 17.004H60.5687L60.5677 2.21Z" fill="#222222"/>
<path fill-rule="evenodd" clip-rule="evenodd" d="M0.955445 34.05C0.938844 32.6654 1.1449 31.2872 1.5658 29.968C1.93298 28.8183 2.51892 27.7499 3.28943 26.821C4.01892 25.9572 4.93201 25.2668 5.9613 24.8C7.05115 24.3152 8.23181 24.0719 9.4242 24.087C10.6156 24.0721 11.7963 24.3153 12.8842 24.8C13.9164 25.2655 14.8304 25.9548 15.5629 26.818C16.3324 27.7477 16.9174 28.8163 17.2855 29.966C18.099 32.6259 18.099 35.4681 17.2855 38.128C16.9193 39.2779 16.3344 40.3461 15.5629 41.274C14.8304 42.1344 13.9174 42.8222 12.8881 43.288C11.8002 43.7725 10.6195 44.0154 9.42712 44C8.23572 44.0154 7.05408 43.7725 5.96423 43.288C4.93591 42.8219 4.0238 42.1337 3.29236 41.273C2.5199 40.3479 1.93396 39.282 1.56677 38.134C1.14392 36.8144 0.937867 35.4353 0.955445 34.05ZM3.49939 34.05C3.47986 35.114 3.62439 36.174 3.92029 37.195C4.16834 38.058 4.57556 38.865 5.12048 39.576C5.61658 40.2143 6.25427 40.7291 6.98279 41.08C7.74255 41.439 8.57459 41.62 9.41345 41.607C10.2533 41.6184 11.0844 41.4382 11.8431 41.08C12.5717 40.7298 13.2094 40.2153 13.7054 39.577C14.2504 38.8655 14.6576 38.0583 14.9056 37.197C15.474 35.1382 15.474 32.9638 14.9056 30.905C14.6556 30.0443 14.2484 29.2371 13.7054 28.524C13.2113 27.8818 12.5746 27.364 11.8441 27.012C11.0844 26.6546 10.2543 26.4744 9.41443 26.485C8.57459 26.475 7.74255 26.655 6.98279 27.012C6.25232 27.364 5.6156 27.882 5.12048 28.524C4.57654 29.2364 4.17029 30.0433 3.92029 30.904C3.62537 31.9262 3.48377 32.9863 3.49939 34.05Z" fill="#222222"/>
<path fill-rule="evenodd" clip-rule="evenodd" d="M21.5267 26.64H19.5629C18.1703 26.64 18.1703 24.44 19.5629 24.44H27.6283C28.4886 24.4247 29.3461 24.5504 30.1664 24.812C30.8451 25.0296 31.4681 25.3912 31.9945 25.872C32.4838 26.3315 32.8636 26.8955 33.1049 27.522C33.3646 28.2 33.4926 28.922 33.4847 29.649C33.5023 30.4204 33.307 31.1816 32.9193 31.849C32.5345 32.4837 31.9906 33.0074 31.3422 33.369C32.4808 33.737 33.3529 34.324 33.9594 35.133C34.5668 35.941 34.8695 36.949 34.8676 38.158C34.8802 38.9403 34.7406 39.7176 34.4574 40.447C34.1967 41.1054 33.7885 41.6951 33.2631 42.171C32.7006 42.6665 32.0394 43.0385 31.3236 43.263C30.4711 43.5284 29.5824 43.6563 28.6908 43.642H19.5629C18.1703 43.642 18.1703 41.443 19.5629 41.443H21.5258V26.641L21.5267 26.64ZM27.2806 32.626C28.5463 32.626 29.4877 32.367 30.1049 31.849C30.722 31.331 31.0306 30.597 31.0306 29.649C31.0306 28.667 30.722 27.919 30.1049 27.407C29.4877 26.895 28.5463 26.639 27.2806 26.64H23.9427V32.626H27.2806ZM28.2142 41.443C29.5541 41.443 30.5775 41.157 31.2816 40.584C31.9857 40.012 32.3363 39.204 32.3353 38.158C32.3353 35.937 30.9886 34.826 28.2943 34.825H23.9427V41.443H28.2142Z" fill="#222222"/>
<path d="M38.4349 26.64H36.7924C35.4027 26.64 35.4027 24.44 36.7924 24.44H50.8646C51.5951 24.424 51.9349 24.79 51.8793 25.54V29.649C51.8793 31.106 49.4642 31.104 49.4642 29.649V26.641H40.851V41.443H49.7865V37.74C49.7865 36.283 52.2015 36.284 52.2015 37.74V42.544C52.2552 43.292 51.9174 43.659 51.1869 43.644H36.7914C35.4017 43.644 35.4017 41.445 36.7914 41.445H38.4349V26.64Z" fill="#222222"/>
<path d="M42.0004 32.648V34.842H44.8754V36.314C44.8754 37.77 47.2904 37.77 47.2904 36.314V31.168C47.2904 29.713 44.8754 29.713 44.8754 31.168V32.648H42.0004Z" fill="#222222"/>
<path d="M54.5785 26.64H56.2191L56.2269 41.445H54.5853C53.1937 41.445 53.1937 43.644 54.5853 43.644H68.9701C69.7015 43.659 70.0394 43.292 69.9857 42.544V37.74C69.9857 36.284 67.5707 36.283 67.5707 37.74V41.443H58.6351V34.842L58.6361 32.648V26.641H67.2504V29.649C67.2504 31.104 69.6654 31.106 69.6654 29.649V25.54C69.7172 24.79 69.3793 24.424 68.6508 24.44H54.5785C53.1879 24.44 53.1879 26.64 54.5785 26.64Z" fill="#222222"/>
<path d="M60.0004 32.648V34.842H62.6615V36.314C62.6615 37.77 65.0765 37.77 65.0765 36.314V31.168C65.0765 29.713 62.6615 29.713 62.6615 31.168V32.648H60.0004Z" fill="#222222"/>
</svg>
