<svg width="84" height="58" viewBox="0 0 84 58" fill="none" xmlns="http://www.w3.org/2000/svg">
<path fill-rule="evenodd" clip-rule="evenodd" d="M3 0H20.0771L20.792 2H3C2.44727 2 2 2.44772 2 3V55C2 55.5523 2.44727 56 3 56H40.0957L40.8105 58H3C1.34277 58 0 56.6569 0 55V3C0 1.34314 1.34277 0 3 0ZM32.9619 0L33.6777 2H81C81.5527 2 82 2.44771 82 3V55C82 55.5523 81.5527 56 81 56H52.9814L53.6963 58H81C82.6572 58 84 56.6569 84 55V3C84 1.34315 82.6572 0 81 0H32.9619ZM9.30859 9.21H8.5166C7.12891 9.21 7.12891 7 8.5166 7H11.917C12.4209 7 12.7324 7.178 12.8506 7.534L16.4258 17.392L19.9795 7.539C20.0996 7.179 20.418 7 20.9336 7H24.3311C25.7207 7 25.7207 9.2 24.3311 9.2H23.5244L23.9443 24.005H30.6738C32.0635 24.005 32.0635 26.205 30.6738 26.205H19.7422C18.3506 26.205 18.3506 24.005 19.7422 24.005H21.5293L21.1758 10.758L17.9004 19.98C17.8027 20.3017 17.6064 20.5848 17.3398 20.79C17.0664 20.9613 16.748 21.0451 16.4258 21.03C16.1025 21.045 15.7832 20.9613 15.5098 20.79C15.2441 20.5839 15.0479 20.3012 14.9473 19.98L11.6572 10.758L11.3193 24.008H13.1084C14.499 24.008 14.499 26.208 13.1084 26.208H8.03027C6.65527 26.216 6.65527 24.005 8.03516 24.005H8.90527L9.30859 9.21ZM27.2754 20.148L31.2324 9.211H28.2217C26.8301 9.211 26.8301 7.011 28.2217 7.011H34.1289C34.9375 6.959 35.4795 7.309 35.7559 8.061L41.4395 24.005H42.4219C43.8125 24.005 43.8125 26.205 42.4219 26.205H36.7217C35.3311 26.205 35.3311 24.005 36.7217 24.005H38.8955L37.5752 20.153L27.2754 20.148ZM30.5166 17.958H36.8291L33.8389 9.211H33.5332L30.5166 17.958ZM45.4824 9.21H49.7812V24.004H45.9805C44.5898 24.004 44.5898 26.204 45.9805 26.204H55.9971C57.3867 26.204 57.3867 24.004 55.9971 24.004H52.1973V9.21H56.4961V12.503C56.4961 13.96 58.9111 13.96 58.9111 12.503V8.105C58.9648 7.357 58.626 6.99 57.8955 7.005H44.082C43.3516 6.99 43.0117 7.357 43.0674 8.105V12.502C43.0674 13.959 45.4824 13.959 45.4824 12.502V9.21ZM67.5674 9.21H63.2686V12.502C63.2686 13.959 60.8535 13.959 60.8535 12.502V8.105C60.7988 7.357 61.1377 6.99 61.8691 7.005H75.6846C76.4141 6.99 76.752 7.357 76.6992 8.105V12.503C76.6992 13.96 74.2842 13.96 74.2842 12.503V9.21H69.9824V24.004H73.7822C75.1719 24.004 75.1719 26.204 73.7822 26.204H63.7686C62.377 26.204 62.377 24.004 63.7686 24.004H67.5684L67.5674 9.21ZM8.56543 36.968C8.14453 38.2872 7.93848 39.6654 7.95508 41.05C7.9375 42.4353 8.14355 43.8144 8.56641 45.134C8.93359 46.282 9.51953 47.3479 10.292 48.273C11.0234 49.1337 11.9355 49.8219 12.9639 50.288C14.0537 50.7725 15.2354 51.0154 16.4268 51C17.6191 51.0154 18.7998 50.7725 19.8877 50.288C20.917 49.8222 21.8301 49.1344 22.5625 48.274C23.334 47.3461 23.9189 46.2779 24.2852 45.128C25.0986 42.4681 25.0986 39.6259 24.2852 36.966C23.917 35.8163 23.332 34.7477 22.5625 33.818C21.8301 32.9548 20.916 32.2655 19.8838 31.8C18.7959 31.3153 17.6152 31.0721 16.4238 31.087C15.2314 31.0719 14.0508 31.3152 12.9609 31.8C11.9316 32.2668 11.0186 32.9572 10.2891 33.821C9.51855 34.7499 8.93262 35.8183 8.56543 36.968ZM10.9199 44.195C10.624 43.174 10.4795 42.114 10.499 41.05C10.4834 39.9863 10.625 38.9262 10.9199 37.904C11.1699 37.0433 11.5762 36.2364 12.1201 35.524C12.6152 34.882 13.252 34.364 13.9824 34.012C14.7422 33.655 15.5742 33.475 16.4141 33.485C17.2539 33.4744 18.084 33.6546 18.8438 34.012C19.5742 34.364 20.2109 34.8818 20.7051 35.524C21.248 36.2371 21.6553 37.0443 21.9053 37.905C22.4736 39.9638 22.4736 42.1382 21.9053 44.197C21.6572 45.0583 21.25 45.8655 20.7051 46.577C20.209 47.2153 19.5713 47.7298 18.8428 48.08C18.084 48.4382 17.2529 48.6184 16.4131 48.607C15.5742 48.62 14.7422 48.439 13.9824 48.08C13.2539 47.7291 12.6162 47.2143 12.1201 46.576C11.5752 45.865 11.168 45.058 10.9199 44.195ZM28.5264 33.64H26.5625C25.1699 33.64 25.1699 31.44 26.5625 31.44H34.6279C35.4883 31.4247 36.3457 31.5504 37.166 31.812C37.8447 32.0296 38.4678 32.3912 38.9941 32.872C39.4834 33.3315 39.8633 33.8955 40.1045 34.522C40.3643 35.2 40.4922 35.922 40.4844 36.649C40.502 37.4204 40.3066 38.1816 39.9189 38.849C39.5342 39.4837 38.9902 40.0074 38.3418 40.369C39.4805 40.737 40.3525 41.324 40.959 42.133C41.5664 42.941 41.8691 43.949 41.8672 45.158C41.8799 45.9403 41.7402 46.7176 41.457 47.447C41.1963 48.1054 40.7881 48.6951 40.2627 49.171C39.7002 49.6665 39.0391 50.0385 38.3232 50.263C37.4707 50.5284 36.582 50.6563 35.6904 50.642H26.5625C25.1699 50.642 25.1699 48.443 26.5625 48.443H28.5254V33.641L28.5264 33.64ZM34.2803 39.626C35.5459 39.626 36.4873 39.367 37.1045 38.849C37.7217 38.331 38.0303 37.597 38.0303 36.649C38.0303 35.667 37.7217 34.919 37.1045 34.407C36.4873 33.895 35.5459 33.639 34.2803 33.64H30.9424V39.626H34.2803ZM35.2139 48.443C36.5537 48.443 37.5771 48.157 38.2812 47.584C38.9854 47.012 39.3359 46.204 39.335 45.158C39.335 42.937 37.9883 41.826 35.2939 41.825H30.9424V48.443H35.2139ZM43.792 33.64H45.4346V48.445H43.791C42.4014 48.445 42.4014 50.644 43.791 50.644H58.1865C58.917 50.659 59.2549 50.292 59.2012 49.544V44.74C59.2012 43.284 56.7861 43.283 56.7861 44.74V48.443H47.8506V41.842H51.875V43.314C51.875 44.77 54.29 44.77 54.29 43.314V38.168C54.29 36.713 51.875 36.713 51.875 38.168V39.648H47.8506V33.641H56.4639V36.649C56.4639 38.104 58.8789 38.106 58.8789 36.649V32.54C58.9346 31.79 58.5947 31.424 57.8643 31.44H43.792C42.4023 31.44 42.4023 33.64 43.792 33.64ZM63.2188 33.64H61.5781C60.1875 33.64 60.1875 31.44 61.5781 31.44H75.6504C76.3789 31.424 76.7168 31.79 76.665 32.54V36.649C76.665 38.106 74.25 38.104 74.25 36.649V33.641H65.6357V39.648H69.6611V38.168C69.6611 36.713 72.0762 36.713 72.0762 38.168V43.314C72.0762 44.77 69.6611 44.77 69.6611 43.314V41.842H65.6348V48.443H74.5703V44.74C74.5703 43.283 76.9854 43.284 76.9854 44.74V49.544C77.0391 50.292 76.7012 50.659 75.9697 50.644H61.585C60.1934 50.644 60.1934 48.445 61.585 48.445H63.2266L63.2188 33.64Z" fill="#222222"/>
</svg>
