<svg width="70" height="44" viewBox="0 0 70 44" fill="none" xmlns="http://www.w3.org/2000/svg">
<g clip-path="url(#clip0_10_417)">
<path d="M2.31595 2.21H1.52395C0.13595 2.21 0.13595 0 1.52395 0H4.92395C5.42795 0 5.73995 0.178 5.85795 0.534L9.43295 10.392L12.987 0.539C13.107 0.179 13.425 0 13.941 0H17.3379C18.7279 0 18.7279 2.2 17.3379 2.2H16.5319L16.952 17.005H23.681C25.0709 17.005 25.0709 19.205 23.681 19.205H12.75C11.358 19.205 11.358 17.005 12.75 17.005H14.537L14.183 3.758L10.908 12.98C10.8096 13.3017 10.6135 13.5848 10.347 13.79C10.0739 13.9613 9.75496 14.0451 9.43295 14.03C9.11031 14.045 8.79077 13.9613 8.51695 13.79C8.25112 13.5839 8.05495 13.3012 7.95495 12.98L4.66495 3.758L4.32695 17.008H6.11595C7.50595 17.008 7.50595 19.208 6.11595 19.208H1.03795C-0.33705 19.216 -0.33705 17.005 1.04295 17.005H1.91295L2.31595 2.21Z" fill="#222222"/>
<path d="M20.2829 13.148L24.2399 2.21099H21.2299C19.8379 2.21099 19.8379 0.0109889 21.2299 0.0109889H27.1369C27.9449 -0.0410111 28.4869 0.308989 28.7639 1.06099L34.4469 17.005H35.4299C36.8199 17.005 36.8199 19.205 35.4299 19.205H29.7299C28.3389 19.205 28.3389 17.005 29.7299 17.005H31.9029L30.5829 13.153L20.2829 13.148ZM23.5239 10.958H29.8369L26.8469 2.21099H26.5409L23.5239 10.958ZM42.7899 2.20999H38.4899V5.50199C38.4899 6.95899 36.0749 6.95899 36.0749 5.50199V1.10499C36.0199 0.356989 36.3589 -0.0100111 37.0899 0.00498888H50.9029C51.6339 -0.0100111 51.9729 0.356989 51.9189 1.10499V5.50299C51.9189 6.95999 49.5039 6.95999 49.5039 5.50299V2.20999H45.2049V17.004H49.0049C50.3949 17.004 50.3949 19.204 49.0049 19.204H38.9879C37.5979 19.204 37.5979 17.004 38.9879 17.004H42.7889V2.20999H42.7899ZM60.5749 2.20999H56.2759V5.50199C56.2759 6.95899 53.8609 6.95899 53.8609 5.50199V1.10499C53.8069 0.356989 54.1459 -0.0100111 54.8769 0.00498888H68.6919C69.4219 -0.0100111 69.7599 0.356989 69.7069 1.10499V5.50299C69.7069 6.95999 67.2919 6.95999 67.2919 5.50299V2.20999H62.9899V17.004H66.7899C68.1799 17.004 68.1799 19.204 66.7899 19.204H56.7759C55.3849 19.204 55.3849 17.004 56.7759 17.004H60.5759V2.20999H60.5749ZM0.962935 34.05C0.94639 32.6654 1.15235 31.2872 1.57293 29.968C1.94077 28.8183 2.52604 27.7499 3.29693 26.821C4.02641 25.9572 4.9392 25.2668 5.96893 24.8C7.05828 24.3152 8.23967 24.0719 9.43194 24.087C10.6232 24.072 11.8036 24.3153 12.8919 24.8C13.9234 25.2655 14.8382 25.9548 15.5699 26.818C16.3399 27.7477 16.9248 28.8163 17.2929 29.966C18.106 32.6259 18.106 35.4681 17.2929 38.128C16.9266 39.2779 16.3416 40.3461 15.5699 41.274C14.8382 42.1344 13.925 42.8222 12.8959 43.288C11.8072 43.7725 10.6265 44.0154 9.43494 44C8.24274 44.0154 7.06133 43.7725 5.97193 43.288C4.9434 42.8219 4.03088 42.1337 3.29993 41.273C2.52731 40.3479 1.94118 39.282 1.57393 38.134C1.15181 36.8144 0.945487 35.4353 0.962935 34.05ZM3.50194 34.05C3.48693 35.114 3.63193 36.174 3.92793 37.195C4.17593 38.058 4.58293 38.865 5.12793 39.576C5.62418 40.2143 6.26149 40.7291 6.98993 41.08C7.74993 41.439 8.58193 41.62 9.42093 41.607C10.2605 41.6184 11.0916 41.4382 11.8509 41.08C12.5795 40.7297 13.2169 40.2153 13.7129 39.577C14.258 38.8655 14.665 38.0583 14.9129 37.197C15.4814 35.1382 15.4814 32.9638 14.9129 30.905C14.6628 30.0443 14.256 29.2371 13.7129 28.524C13.2189 27.8818 12.5816 27.364 11.8519 27.012C11.0923 26.6546 10.2614 26.4744 9.42194 26.485C8.58193 26.475 7.74993 26.655 6.98993 27.012C6.25993 27.364 5.62293 27.882 5.12793 28.524C4.58433 29.2364 4.17746 30.0433 3.92793 30.904C3.63326 31.9262 3.49139 32.9863 3.50693 34.05H3.50194ZM21.5339 26.64H19.5699C18.1779 26.64 18.1779 24.44 19.5699 24.44H27.6359C28.4966 24.4247 29.3539 24.5504 30.1739 24.812C30.8525 25.0296 31.476 25.3912 32.0019 25.872C32.4914 26.3314 32.8708 26.8955 33.1119 27.522C33.3719 28.2 33.4999 28.922 33.4919 29.649C33.5097 30.4203 33.3141 31.1816 32.9269 31.849C32.5417 32.4837 31.9983 33.0074 31.3499 33.369C32.4879 33.737 33.3599 34.324 33.9669 35.133C34.5739 35.941 34.8769 36.949 34.8749 38.158C34.8873 38.9403 34.748 39.7176 34.4649 40.447C34.2039 41.1053 33.7954 41.6951 33.2709 42.171C32.7076 42.6665 32.0468 43.0385 31.3309 43.263C30.479 43.5284 29.5902 43.6563 28.6979 43.642H19.5699C18.1779 43.642 18.1779 41.443 19.5699 41.443H21.5329V26.641L21.5339 26.64ZM27.2879 32.626C28.5539 32.626 29.4949 32.367 30.1119 31.849C30.7299 31.331 31.0379 30.597 31.0379 29.649C31.0379 28.667 30.7299 27.919 30.1119 27.407C29.4949 26.895 28.5539 26.639 27.2879 26.64H23.9499V32.626H27.2869H27.2879ZM28.2219 41.443C29.5619 41.443 30.5849 41.157 31.2889 40.584C31.9929 40.012 32.3439 39.204 32.3429 38.158C32.3429 35.937 30.9959 34.826 28.3019 34.825H23.9499V41.443H28.2209H28.2219ZM38.4419 26.64H36.7999C35.4099 26.64 35.4099 24.44 36.7999 24.44H50.8719C51.6029 24.424 51.9419 24.79 51.8869 25.54V29.649C51.8869 31.106 49.4719 31.104 49.4719 29.649V26.641H40.8579V32.648H44.8829V31.168C44.8829 29.713 47.2979 29.713 47.2979 31.168V36.314C47.2979 37.77 44.8829 37.77 44.8829 36.314V34.842H40.8579V41.443H49.7939V37.74C49.7939 36.283 52.2089 36.284 52.2089 37.74V42.544C52.2629 43.292 51.9249 43.659 51.1939 43.644H36.7989C35.4089 43.644 35.4089 41.445 36.7989 41.445H38.4419V26.641V26.64ZM56.2269 26.64H54.5859C53.1949 26.64 53.1949 24.44 54.5859 24.44H68.6579C69.3869 24.424 69.7249 24.79 69.6729 25.54V29.649C69.6729 31.106 67.2579 31.104 67.2579 29.649V26.641H58.6439V32.648H62.6689V31.168C62.6689 29.713 65.0839 29.713 65.0839 31.168V36.314C65.0839 37.77 62.6689 37.77 62.6689 36.314V34.842H58.6429V41.443H67.5779V37.74C67.5779 36.283 69.9929 36.284 69.9929 37.74V42.544C70.0469 43.292 69.7089 43.659 68.9779 43.644H54.5929C53.2009 43.644 53.2009 41.445 54.5929 41.445H56.2339L56.2269 26.642V26.64Z" fill="#222222"/>
</g>
<defs>
<clipPath id="clip0_10_417">
<rect width="70" height="44" fill="white"/>
</clipPath>
</defs>
</svg>
