<svg width="70" height="44" viewBox="0 0 70 44" fill="none" xmlns="http://www.w3.org/2000/svg">
<g clip-path="url(#clip0)">
<path d="M2.31614 2.21063H1.52411C0.136367 2.21063 0.136367 0 1.52411 0H4.92409C5.42842 0 5.73982 0.177984 5.85828 0.533952L9.43258 10.3917L12.9866 0.539053C13.1073 0.179684 13.4255 0 13.9411 0H17.3377C18.7288 0 18.7288 2.20043 17.3377 2.20043H16.5321L16.9518 17.0048H23.6807C25.0718 17.0048 25.0718 19.2053 23.6807 19.2053H12.7496C11.3585 19.2053 11.3585 17.0048 12.7496 17.0048H14.5368L14.1831 3.75807L10.9083 12.9798C10.8093 13.3017 10.6129 13.5847 10.3465 13.7892C10.0733 13.9611 9.75454 14.0453 9.43258 14.0307C9.1101 14.0452 8.79083 13.961 8.517 13.7892C8.25158 13.5836 8.05543 13.3011 7.95514 12.9798L4.66516 3.75807L4.32669 17.0082H6.11553C7.50666 17.0082 7.50666 19.2087 6.11553 19.2087H1.0384C-0.337498 19.2155 -0.337498 17.0048 1.04348 17.0048H1.91336L2.31614 2.21063Z" fill="#40587C"/>
<path d="M20.2831 13.1481L24.2399 2.21062H21.2292C19.838 2.21062 19.838 0.0101977 21.2292 0.0101977H27.1372C27.9451 -0.0408168 28.4872 0.309483 28.7636 1.0611L34.4466 17.0048H35.4299C36.8193 17.0048 36.8193 19.2053 35.4299 19.2053H29.7299C28.3388 19.2053 28.3388 17.0048 29.7299 17.0048H31.903L30.5829 13.1532L20.2831 13.1481ZM23.524 10.9579H29.8366L26.8478 2.21062H26.5415L23.524 10.9579ZM42.79 2.21062H38.4897V5.50276C38.4897 6.96007 36.0747 6.96007 36.0747 5.50276V1.10531C36.0205 0.357096 36.359 -0.00964131 37.0901 0.00509621H50.9033C51.6344 -0.00964131 51.9728 0.357096 51.9187 1.10531V5.50276C51.9187 6.96007 49.5037 6.96007 49.5037 5.50276V2.21062H45.205V17.0048H49.0044C50.3955 17.0048 50.3955 19.2053 49.0044 19.2053H38.9889C37.5995 19.2053 37.5995 17.0048 38.9889 17.0048H42.79V2.21062ZM60.5752 2.21062H56.2765V5.50276C56.2765 6.96007 53.8615 6.96007 53.8615 5.50276V1.10531C53.8074 0.357096 54.1458 -0.00964131 54.8769 0.00509621H68.6918C69.4218 -0.00964131 69.7603 0.357096 69.7072 1.10531V5.50276C69.7072 6.96007 67.2922 6.96007 67.2922 5.50276V2.21062H62.9902V17.0048H66.7896C68.1807 17.0048 68.1807 19.2053 66.7896 19.2053H56.7758C55.3847 19.2053 55.3847 17.0048 56.7758 17.0048H60.5752V2.21062ZM0.962968 34.0505C0.945744 32.6658 1.15207 31.2876 1.57392 29.9693C1.94176 28.8187 2.52669 27.75 3.29675 26.8217C4.02713 25.9568 4.93996 25.2662 5.96901 24.7998C7.05884 24.3151 8.23986 24.0721 9.43161 24.0873C10.6228 24.072 11.8033 24.315 12.8925 24.7998C13.9229 25.2648 14.8374 25.9543 15.5699 26.8183C16.3393 27.7471 16.9242 28.8156 17.2927 29.9659C18.1059 32.6253 18.1059 35.4688 17.2927 38.1282C16.926 39.2788 16.341 40.3471 15.5699 41.2741C14.8371 42.135 13.924 42.8226 12.8959 43.2875C11.8067 43.7723 10.6262 44.0153 9.435 44C8.24325 44.0153 7.06223 43.7723 5.9724 43.2875C4.9448 42.8225 4.03226 42.135 3.30014 41.2741C2.52791 40.3499 1.94165 39.2838 1.57392 38.135C1.15182 36.8157 0.945497 35.4362 0.962968 34.0505ZM3.50153 34.0505C3.4874 35.1146 3.63113 36.1748 3.92801 37.1964C4.17556 38.0586 4.58263 38.8663 5.1279 39.577C5.62478 40.2156 6.26192 40.7301 6.98951 41.0803C7.74995 41.4388 8.58153 41.6191 9.42146 41.6074C10.2608 41.6189 11.0918 41.4386 11.8517 41.0803C12.5795 40.7304 13.2167 40.2159 13.7133 39.577C14.2581 38.8659 14.6651 38.0584 14.9132 37.1964C15.4816 35.138 15.4816 32.963 14.9132 30.9046C14.6628 30.0434 14.256 29.2363 13.7133 28.5239C13.2184 27.8812 12.5809 27.3635 11.8517 27.0122C11.0915 26.6546 10.2607 26.4744 9.42146 26.485C8.58161 26.4742 7.75022 26.6544 6.98951 27.0122C6.26044 27.3638 5.62302 27.8814 5.1279 28.5239C4.58456 29.2359 4.17769 30.0432 3.92801 30.9046C3.63324 31.9264 3.49123 32.9867 3.50661 34.0505H3.50153ZM21.5338 26.6415H19.5706C18.1795 26.6415 18.1795 24.441 19.5706 24.441H27.6365C28.4972 24.4259 29.3546 24.5517 30.175 24.8134C30.853 25.0306 31.4763 25.3919 32.0028 25.8728C32.4919 26.3316 32.8714 26.8955 33.113 27.5223C33.3723 28.2009 33.5009 28.9228 33.4921 29.6496C33.5102 30.4213 33.3152 31.183 32.9285 31.85C32.5426 32.4855 31.9991 33.0093 31.3512 33.3703C32.4885 33.7376 33.3607 34.3254 33.9677 35.1337C34.5747 35.942 34.8776 36.9504 34.8765 38.1588C34.8889 38.9412 34.7498 39.7186 34.4669 40.4477C34.2053 41.1068 33.7965 41.6967 33.2721 42.172C32.7084 42.6677 32.0477 43.0395 31.3326 43.2637C30.4803 43.5292 29.5915 43.6572 28.6993 43.6429H19.5706C18.1795 43.6429 18.1795 41.4442 19.5706 41.4442H21.5338V26.6415ZM27.2879 32.6272C28.5538 32.6272 29.4953 32.3681 30.1124 31.85C30.7296 31.332 31.0382 30.5985 31.0382 29.6496C31.0382 28.6679 30.7296 27.9208 30.1124 27.4084C29.4953 26.896 28.5538 26.6403 27.2879 26.6415H23.9505V32.6272H27.2879ZM28.222 41.4442C29.5624 41.4442 30.5846 41.1579 31.2886 40.5854C31.9927 40.0129 32.3441 39.2041 32.343 38.1588C32.343 35.938 30.9958 34.827 28.3016 34.8259H23.9505V41.4442H28.222ZM38.4423 26.6415H36.799C35.4096 26.6415 35.4096 24.441 36.799 24.441H50.8711C51.6022 24.4252 51.9407 24.7919 51.8865 25.5413V29.6496C51.8865 31.1069 49.4715 31.1052 49.4715 29.6496V26.6415H40.8573V32.6493H44.8818V31.1698C44.8818 29.7142 47.2968 29.7142 47.2968 31.1698V36.3155C47.2968 37.7711 44.8818 37.7711 44.8818 36.3155V34.8429H40.8573V41.4442H49.7931V37.7388C49.7931 36.2815 52.2081 36.2832 52.2081 37.7388V42.5427C52.2622 43.2909 51.9238 43.6576 51.1926 43.6429H36.799C35.4096 43.6429 35.4096 41.4442 36.799 41.4442H38.4423V26.6415ZM56.2275 26.6415H54.5859C53.1947 26.6415 53.1947 24.441 54.5859 24.441H68.658C69.3868 24.4252 69.7253 24.7919 69.6734 25.5413V29.6496C69.6734 31.1069 67.2584 31.1052 67.2584 29.6496V26.6415H58.6442V32.6493H62.6686V31.1698C62.6686 29.7142 65.0837 29.7142 65.0837 31.1698V36.3155C65.0837 37.7711 62.6686 37.7711 62.6686 36.3155V34.8429H58.6425V41.4442H67.5782V37.7388C67.5782 36.2815 69.9932 36.2832 69.9932 37.7388V42.5427C70.0474 43.2909 69.7089 43.6576 68.9778 43.6429H54.5926C53.2015 43.6429 53.2015 41.4442 54.5926 41.4442H56.2342L56.2275 26.6415Z" fill="#40587C"/>
</g>
<defs>
<clipPath id="clip0">
<rect width="70" height="44" fill="white"/>
</clipPath>
</defs>
</svg>
